# Blender v2.93.5 OBJ File: ''
# www.blender.org
mtllib .\\models\\zelda_pot.mtl
o pot_base
v 0.000000 -0.383460 0.002950
v -0.899170 -0.004860 0.440710
v -0.899170 -0.004860 -0.434800
v 0.000000 -0.004860 -1.050020
v 0.899170 -0.004860 -0.434800
v 0.899170 -0.004860 0.440710
v 0.000000 -0.004860 1.044100
v -0.828180 0.894310 -0.399310
v -0.828180 0.894310 0.405210
v 0.000000 1.639670 0.002950
v 0.828180 0.894310 -0.399310
v 0.000000 0.894310 -0.967200
v 0.828180 0.894310 0.405210
v 0.000000 0.894310 0.973110
v -0.094650 1.639670 -0.493960
v -0.508740 1.639670 0.097600
v 0.496910 1.639670 -0.091690
v 0.094650 1.639670 0.511690
vt 0.498243 0.762730
vt 0.953926 0.693683
vt 0.042622 0.693683
vt 0.953926 0.693683
vt 0.042622 0.693683
vt 0.953926 0.693683
vt 0.042622 0.693683
vt 0.035930 0.416370
vt 0.961243 0.436571
vt 0.507436 0.023667
vt 0.035304 0.428941
vt 0.961243 0.428628
vt 0.961243 0.428628
vt 0.035304 0.428941
vt 0.961243 0.428628
vt 0.035304 0.428941
vt 0.964871 0.422187
vt 0.518444 0.034049
vt 0.966122 0.421311
vt 0.471975 0.017600
vt 0.160120 -0.003290
vt 0.496798 0.605179
vt 0.848200 -0.003290
vt 0.160120 -0.003290
vt 0.504160 0.619973
vt 0.848200 -0.003290
vt 0.160120 -0.003290
vt 0.504160 0.625684
vt 0.848200 -0.003290
vt 0.953926 0.693683
vt 0.042622 0.693683
vt 0.160120 -0.003290
vt 0.511522 0.659262
vt 0.848200 -0.003290
vt 0.961243 0.428628
vt 0.035304 0.428941
vt 0.953926 0.693683
vt 0.042622 0.693683
vt 0.034679 0.435008
vt 0.967310 0.434695
vt 0.463469 -0.006854
vt 0.961243 0.428628
vt 0.035304 0.428941
vt 0.953926 0.693683
vt 0.042622 0.693683
vt 0.034679 0.433819
vt 0.963683 0.412117
vt 0.506811 0.045682
vt 0.035304 0.428941
vt 0.961243 0.428628
vt 0.498243 0.018163
vn -0.3881 -0.9216 -0.0000
vn 0.2255 -0.9168 -0.3296
vn 0.2235 -0.9160 0.3331
vn -0.6690 0.7433 0.0000
vn 0.5638 0.0770 -0.8223
vn 0.5635 0.0764 -0.8226
vn 0.5634 0.0763 -0.8226
vn 0.5631 0.0758 -0.8229
vn 0.5556 0.0766 0.8279
vn 0.5643 0.0650 0.8230
vn -0.9969 0.0787 0.0000
vn 0.3855 0.7317 -0.5622
vn 0.3855 0.7317 0.5622
vn -0.8064 -0.1764 -0.5645
vn 0.5537 -0.1741 -0.8143
vn -0.5568 -0.1780 0.8114
vn -0.2255 -0.9168 -0.3296
vn 0.8191 -0.1756 0.5461
vn -0.5630 0.0769 -0.8229
vn -0.5637 0.0756 -0.8225
vn -0.5635 0.0763 -0.8226
vn -0.5639 0.0757 -0.8224
vn -0.2235 -0.9160 0.3331
vn -0.3855 0.7317 -0.5622
vn -0.5560 0.0654 0.8286
vn -0.5639 0.0770 0.8223
vn 0.3881 -0.9216 -0.0000
vn -0.3855 0.7317 0.5622
vn 0.9969 0.0787 0.0000
vn 0.6690 0.7433 0.0000
usemtl pot_base
s 1
f 1/1/1 2/2/1 3/3/1
f 1/1/2 4/4/2 5/5/2
f 1/1/3 6/6/3 7/7/3
f 8/8/4 9/9/4 10/10/4
f 11/11/5 5/5/6 12/12/7
f 12/12/7 5/5/6 4/4/8
f 6/6/9 13/13/9 7/7/9
f 7/7/10 13/13/10 14/14/10
f 2/2/11 9/15/11 3/3/11
f 3/3/11 9/15/11 8/16/11
f 11/11/12 12/17/12 10/18/12
f 14/14/13 13/19/13 10/20/13
f 15/21/14 1/22/14 16/23/14
f 17/24/15 1/25/15 15/26/15
f 16/27/16 1/28/16 18/29/16
f 1/1/17 3/30/17 4/31/17
f 18/32/18 1/33/18 17/34/18
f 3/30/19 8/35/20 4/31/21
f 4/31/21 8/35/20 12/36/22
f 1/1/23 7/37/23 2/38/23
f 12/39/24 8/40/24 10/41/24
f 7/37/25 14/42/25 2/38/25
f 2/38/26 14/42/26 9/43/26
f 1/1/27 5/44/27 6/45/27
f 9/46/28 14/47/28 10/48/28
f 13/49/29 6/45/29 11/50/29
f 11/50/29 6/45/29 5/44/29
f 13/49/30 11/50/30 10/51/30
o pot_top
v 0.118310 1.639670 0.641840
v 0.638880 1.639670 -0.115360
v -0.638880 1.639670 0.133100
v -0.118310 1.639670 -0.635930
vt 0.000000 -0.002000
vt 0.000000 1.000000
vt 1.000000 -0.002000
vt 1.000000 1.000000
vn 0.0000 1.0000 0.0000
usemtl pot_top
s 1
f 19/52/31 20/53/31 21/54/31
f 21/54/31 20/53/31 22/55/31
