# Blender v2.93.5 OBJ File: ''
# www.blender.org
mtllib Majora.mtl
o Majora
v 0.270508 0.073242 -0.027344
v 0.451172 0.203125 -0.021484
v 0.652344 -0.129883 -0.038086
v 0.361328 0.135742 0.034180
v -0.652344 -0.129883 -0.038086
v -0.361328 0.135742 0.034180
v -0.451172 0.203125 -0.021484
v -0.270508 0.073242 -0.027344
vt 0.707031 0.609375
vt 0.845703 1.000000
vt 0.998047 0.001953
vt 0.775391 0.804688
vt 0.000000 0.001953
vt 0.222656 0.804688
vt 0.152344 1.000000
vt 0.291016 0.609375
vn -0.4544 -0.8383 -0.3012
vn 0.8303 0.5125 -0.2191
vn 0.2100 -0.3020 0.9299
vn 0.0954 -0.1626 0.9821
vn -0.2101 -0.3020 0.9299
vn -0.0954 -0.1626 0.9821
vn -0.8303 0.5125 -0.2191
vn 0.4544 -0.8383 -0.3012
usemtl mtl_06007BE0
s 1
f 1/1/1 2/2/2 3/3/3
f 4/4/4 1/1/1 3/3/3
f 5/5/5 6/6/6 7/7/7
f 7/7/7 8/8/8 5/5/5
f 8/8/8 6/6/6 5/5/5
f 4/4/4 3/3/3 2/2/2
o 2
v 0.251953 0.470703 0.334961
v 0.000000 0.209961 0.162109
v 0.189453 0.228516 0.305664
v 0.000000 0.666992 0.277344
v 0.588867 0.770508 0.284180
v 0.495117 0.391601 0.265625
v 0.299805 0.722656 0.346680
v -0.251953 0.470703 0.334961
v -0.588867 0.770508 0.284180
v -0.495117 0.391602 0.265625
v -0.189453 0.228516 0.305664
v -0.299805 0.722656 0.346680
vt 0.590820 0.443359
vt 0.970215 -0.016602
vt 0.684570 0.027832
vt 0.970215 0.773438
vt 0.084473 0.949219
vt 0.225098 0.303711
vt 0.519043 0.874023
vt 0.590820 0.443359
vt 0.084473 0.949219
vt 0.225098 0.303711
vt 0.684570 0.027832
vt 0.519043 0.874023
vn -0.0945 -0.0953 0.9910
vn -0.0000 -0.0975 0.9952
vn -0.2160 -0.0621 0.9744
vn 0.0000 -0.1213 0.9926
vn 0.2324 -0.0972 0.9678
vn 0.2292 -0.1397 0.9633
vn -0.0002 -0.0464 0.9989
vn 0.0945 -0.0953 0.9910
vn -0.2324 -0.0972 0.9678
vn -0.2292 -0.1397 0.9633
vn 0.2160 -0.0621 0.9744
vn 0.0002 -0.0464 0.9989
usemtl mtl_060087E0
s 1
f 9/9/9 10/10/10 11/11/11
f 10/10/10 9/9/9 12/12/12
f 13/13/13 9/9/9 14/14/14
f 11/11/11 14/14/14 9/9/9
f 9/9/9 15/15/15 12/12/12
f 9/9/9 13/13/13 15/15/15
f 16/16/16 17/17/17 18/18/18
f 16/16/16 10/10/10 12/12/12
f 18/18/18 19/19/19 16/16/16
f 10/10/10 16/16/16 19/19/19
f 17/17/17 16/16/16 20/20/20
f 20/20/20 16/16/16 12/12/12
o 3
v 0.000000 -0.203125 -0.096680
v 0.000000 0.958008 -0.039062
v 0.643555 0.322266 -0.070312
v 0.765625 0.813476 -0.045898
v 0.254883 1.076172 -0.033203
v 0.559570 1.070312 -0.033203
v -0.254883 1.076172 -0.033203
v -0.765625 0.813477 -0.045898
v -0.559570 1.070313 -0.033203
v -0.643555 0.322266 -0.070313
vt 0.990234 0.000000
vt 1.000000 0.994141
vt 0.187500 0.223633
vt 0.015625 0.674805
vt 0.332031 1.001953
vt 0.102539 0.973633
vt 0.333008 1.000000
vt 0.015625 0.674805
vt 0.102539 0.973633
vt 0.187500 0.223633
vn 0.0000 0.0496 -0.9988
vn 0.0000 0.0493 -0.9988
vn 0.0004 0.0495 -0.9988
vn 0.0005 0.0496 -0.9988
vn 0.0006 0.0494 -0.9988
vn 0.0010 0.0501 -0.9987
vn -0.0006 0.0494 -0.9988
vn -0.0005 0.0496 -0.9988
vn -0.0010 0.0501 -0.9987
vn -0.0004 0.0496 -0.9988
usemtl mtl_06007FE0
s 1
f 21/21/21 22/22/22 23/23/23
f 24/24/24 25/25/25 26/26/26
f 27/27/27 28/28/28 29/29/29
f 28/28/28 22/22/22 30/30/30
f 22/22/22 24/24/24 23/23/23
f 25/25/25 24/24/24 22/22/22
f 28/28/28 27/27/27 22/22/22
f 22/22/22 21/21/21 30/30/30
o 4
v -0.477539 0.968750 -0.013672
v -0.436523 1.492188 0.012695
v -0.238281 0.990234 -0.011719
v -0.353516 0.951172 0.095703
v 0.436524 1.492187 0.012695
v 0.353516 0.951172 0.095703
v 0.477539 0.968750 -0.013672
v 0.238281 0.990234 -0.011719
v 0.673828 0.570312 -0.002930
v 1.013672 0.322265 -0.015625
v 0.566406 0.394531 -0.011719
v 0.620117 0.479492 0.051758
v -1.013672 0.322266 -0.015625
v -0.620117 0.479492 0.051758
v -0.673828 0.570313 -0.002930
v -0.566406 0.394531 -0.011719
vt 0.000000 0.023438
vt 0.041016 1.000000
vt 0.250000 0.064453
vt 0.128906 0.000000
vt 0.957031 1.000000
vt 0.869141 0.000000
vt 0.998047 0.023438
vt 0.748047 0.064453
vt 0.832031 1.000000
vt 1.000000 0.000000
vt 0.779297 0.291016
vt 0.804688 0.646484
vt 0.000000 0.000000
vt 0.193359 0.646484
vt 0.166016 1.000000
vt 0.218750 0.291016
vn -0.9317 0.0907 -0.3517
vn -0.0513 0.4802 0.8757
vn 0.8680 0.3595 -0.3427
vn -0.0218 0.1484 0.9887
vn 0.0577 0.4792 0.8758
vn 0.0218 0.1484 0.9887
vn 0.9317 0.0907 -0.3517
vn -0.8680 0.3595 -0.3427
vn 0.5699 0.7920 -0.2191
vn 0.2788 -0.2021 0.9388
vn -0.1538 -0.9345 -0.3211
vn 0.1219 -0.1172 0.9856
vn -0.2788 -0.2022 0.9388
vn -0.1219 -0.1172 0.9856
vn -0.5699 0.7920 -0.2191
vn 0.1538 -0.9345 -0.3211
usemtl mtl_060077E0
s 1
f 31/31/31 32/32/32 33/33/33
f 34/34/34 33/33/33 32/32/32
f 35/35/35 36/36/36 37/37/37
f 35/35/35 37/37/37 38/38/38
f 38/38/38 36/36/36 35/35/35
f 34/34/34 32/32/32 31/31/31
f 39/39/39 40/40/40 41/41/41
f 42/42/42 41/41/41 40/40/40
f 43/43/43 44/44/44 45/45/45
f 45/45/45 46/46/46 43/43/43
f 46/46/46 44/44/44 43/43/43
f 42/42/42 40/40/40 39/39/39
o 5
v -0.270508 0.049805 -0.028320
v -0.060547 -0.047852 -0.033203
v -0.383789 -0.310547 -0.046875
v -0.166016 -0.001953 0.027344
v 0.166016 -0.001953 0.027344
v 0.383789 -0.310547 -0.046875
v 0.270508 0.049805 -0.028320
v 0.060547 -0.047852 -0.033203
vt 0.146484 1.000000
vt 0.419922 0.730469
vt 0.000000 0.000000
vt 0.283203 0.865234
vt 0.714844 0.865234
vt 1.000000 0.000000
vt 0.851562 1.000000
vt 0.578125 0.730469
vn -0.9276 0.3029 -0.2185
vn 0.6111 -0.7369 -0.2890
vn -0.1552 -0.3452 0.9256
vn -0.0709 -0.1857 0.9801
vn 0.0709 -0.1857 0.9801
vn 0.1552 -0.3452 0.9256
vn 0.9276 0.3029 -0.2185
vn -0.6111 -0.7369 -0.2890
usemtl mtl_06007DE0
s 1
f 47/47/47 48/48/48 49/49/49
f 48/48/48 50/50/50 49/49/49
f 51/51/51 52/52/52 53/53/53
f 54/54/54 53/53/53 52/52/52
f 51/51/51 54/54/54 52/52/52
f 49/49/49 50/50/50 47/47/47
o 6
v -0.590820 0.372070 -0.012695
v -0.429688 0.225586 -0.019531
v -0.836914 0.058594 -0.028320
v -0.510742 0.295899 0.042969
v 0.510742 0.295898 0.042969
v 0.836914 0.058594 -0.028320
v 0.590820 0.372070 -0.012695
v 0.429687 0.225586 -0.019531
vt 0.146484 1.000000
vt 0.242188 0.533203
vt 0.000000 0.000000
vt 0.193359 0.767578
vt 0.804688 0.767578
vt 1.000000 0.000000
vt 0.851562 1.000000
vt 0.755859 0.533203
vn -0.7621 0.6092 -0.2192
vn 0.3665 -0.8775 -0.3094
vn -0.2347 -0.2775 0.9316
vn -0.1052 -0.1508 0.9830
vn 0.1052 -0.1508 0.9830
vn 0.2347 -0.2774 0.9316
vn 0.7621 0.6092 -0.2193
vn -0.3665 -0.8775 -0.3094
usemtl mtl_060079E0
s 1
f 55/55/55 56/56/56 57/57/57
f 56/56/56 58/58/58 57/57/57
f 59/59/59 60/60/60 61/61/61
f 62/62/62 61/61/61 60/60/60
f 59/59/59 62/62/62 60/60/60
f 57/57/57 58/58/58 55/55/55
o 7
v 0.097656 0.847656 0.176758
v 0.000000 0.958008 -0.039062
v 0.000000 0.657227 0.215820
v 0.000000 0.209961 0.107422
v 0.246094 0.464844 0.268555
v -0.291992 0.710938 0.281250
v -0.246094 0.464844 0.268555
v -0.184570 0.228516 0.241211
v 0.000000 -0.203125 -0.096680
v -0.191406 0.959961 0.111328
v -0.254883 1.076172 -0.033203
v -0.574219 0.756836 0.222656
v -0.559570 1.070313 -0.033203
v -0.765625 0.813477 -0.045898
v -0.097656 0.847656 0.176758
v -0.213867 0.839844 0.272461
v 0.765625 0.813476 -0.045898
v 0.483398 0.388672 0.204102
v 0.643555 0.322266 -0.070312
v 0.213867 0.839844 0.272461
v 0.291992 0.710937 0.281250
v -0.374023 0.221680 0.122070
v -0.483398 0.388672 0.204102
v -0.643555 0.322266 -0.070313
v 0.374023 0.221680 0.122070
v -0.419922 0.952148 0.172852
v 0.191406 0.959961 0.111328
v 0.254883 1.076172 -0.033203
v 0.419922 0.952148 0.172852
v 0.559570 1.070312 -0.033203
v 0.574219 0.756836 0.222656
v 0.184570 0.228516 0.241211
vt 0.667969 0.840332
vt 0.748047 1.000000
vt 0.748047 0.676270
vt 0.748535 0.327148
vt 0.526367 0.546875
vt 0.500000 0.765625
vt 0.526367 0.546875
vt 0.527832 0.330078
vt 0.748535 -0.000977
vt 0.539551 0.949219
vt 0.414551 1.001953
vt 0.269531 0.775879
vt 0.250977 1.003418
vt 0.181641 0.803223
vt 0.667969 0.840332
vt 0.563477 0.851074
vt 0.181641 0.803223
vt 0.350586 0.485840
vt 0.250977 0.299316
vt 0.563477 0.851074
vt 0.500000 0.765625
vt 0.392578 0.287598
vt 0.350586 0.485840
vt 0.250977 0.299316
vt 0.392578 0.287598
vt 0.700684 -0.000977
vt 0.427246 0.916504
vt 0.539551 0.949219
vt 0.414551 1.001953
vt 0.427246 0.916504
vt 0.250977 1.003418
vt 0.269531 0.775879
vt 0.527832 0.330078
vn -0.5389 0.5818 0.6091
vn 0.0000 0.7780 0.6282
vn 0.0000 0.1465 0.9892
vn 0.0000 -0.2122 0.9772
vn -0.0918 -0.0941 0.9913
vn -0.0493 0.0906 0.9947
vn 0.0918 -0.0941 0.9913
vn 0.0260 -0.4132 0.9103
vn 0.0000 -0.6929 0.7210
vn 0.3080 0.7640 0.5669
vn 0.1669 0.8317 0.5295
vn -0.4742 0.1822 0.8614
vn -0.4114 0.6761 0.6113
vn -0.8131 0.0141 0.5819
vn 0.5389 0.5818 0.6091
vn 0.2294 0.4721 0.8512
vn 0.8131 0.0141 0.5819
vn 0.5535 -0.3544 0.7537
vn 0.6778 -0.5410 0.4978
vn -0.2294 0.4721 0.8512
vn 0.0493 0.0905 0.9947
vn -0.4916 -0.6608 0.5671
vn -0.5535 -0.3544 0.7537
vn -0.6778 -0.5410 0.4978
vn 0.4916 -0.6608 0.5672
vn -0.1243 0.6459 0.7533
vn -0.3080 0.7640 0.5669
vn -0.1669 0.8317 0.5295
vn 0.1243 0.6459 0.7533
vn 0.4114 0.6761 0.6113
vn 0.4742 0.1822 0.8614
vn -0.0260 -0.4132 0.9103
usemtl mtl_060067E0
s 1
f 63/63/63 64/64/64 65/65/65
f 66/66/66 67/67/67 65/65/65
f 68/68/68 69/69/69 65/65/65
f 70/70/70 71/71/71 66/66/66
f 72/72/72 64/64/64 73/73/73
f 74/74/74 75/75/75 76/76/76
f 77/77/77 78/78/78 65/65/65
f 79/79/79 80/80/80 81/81/81
f 82/82/82 63/63/63 65/65/65
f 83/83/83 82/82/82 65/65/65
f 84/84/84 85/85/85 86/86/86
f 87/87/87 71/88/71 81/81/81
f 64/64/64 77/77/77 65/65/65
f 88/89/88 73/73/73 75/75/75
f 78/78/78 68/68/68 65/65/65
f 85/85/85 76/76/76 86/86/86
f 69/69/69 66/66/66 65/65/65
f 64/64/64 89/90/89 90/91/90
f 90/91/90 91/92/91 92/93/92
f 92/93/92 93/94/93 79/79/79
f 67/67/67 83/83/83 65/65/65
f 80/80/80 87/87/87 81/81/81
f 71/88/71 84/84/84 86/86/86
f 71/71/71 94/95/94 66/66/66
f 64/64/64 72/72/72 77/77/77
f 72/72/72 78/78/78 77/77/77
f 88/89/88 68/68/68 78/78/78
f 74/74/74 69/69/69 68/68/68
f 85/85/85 70/70/70 69/69/69
f 84/84/84 71/71/71 70/70/70
f 89/90/89 64/64/64 63/63/63
f 82/82/82 89/90/89 63/63/63
f 83/83/83 91/92/91 82/82/82
f 67/67/67 93/94/93 83/83/83
f 94/95/94 80/80/80 67/67/67
f 71/71/71 87/87/87 94/95/94
f 78/78/78 72/72/72 88/89/88
f 89/90/89 82/82/82 91/92/91
f 73/73/73 88/89/88 72/72/72
f 91/92/91 90/91/90 89/90/89
f 68/68/68 88/89/88 74/74/74
f 75/75/75 74/74/74 88/89/88
f 91/92/91 83/83/83 93/94/93
f 93/94/93 92/93/92 91/92/91
f 69/69/69 74/74/74 85/85/85
f 93/94/93 67/67/67 80/80/80
f 76/76/76 85/85/85 74/74/74
f 80/80/80 79/79/79 93/94/93
f 66/66/66 69/69/69 70/70/70
f 67/67/67 66/66/66 94/95/94
f 70/70/70 85/85/85 84/84/84
f 80/80/80 94/95/94 87/87/87
